<svg xmlns="http://www.w3.org/2000/svg" width="226" height="326" viewBox="0 0 226 346">
                                <linearGradient id="number-3" x1="-190.6" x2="-190.6" y1="569.2" y2="568.5" gradientTransform="matrix(225.5908 0 0 -344.9268 43121.5 196387)" gradientUnits="userSpaceOnUse">
                                    <stop offset="0" stop-color="#eff2f6"></stop>
                                    <stop offset="1" stop-color="#fff"></stop>
                                </linearGradient>
                                <path fill="url(#number-3)" d="M215.8 82.6c0 21.3-6.2 39-18.6 53.1s-29.8 23.7-52.3 28.6v1.8c26.9 3.4 47.1 11.7 60.6 25.1s20.2 31.2 20.2 53.4c0 32.3-11.4 57.2-34.2 74.7s-55.2 26.3-97.3 26.3c-37.2 0-68.5-6-94.1-18.1v-48a215.2 215.2 0 0 0 91.1 22c26 0 45.4-4.8 58.3-14.5s19.3-24.6 19.3-44.8c0-17.9-7.1-31.1-21.3-39.5s-36.6-12.6-67-12.6H51.3v-43.8h29.6c53.5 0 80.3-18.5 80.3-55.5 0-14.4-4.7-25.5-14-33.3s-23.1-11.7-41.3-11.7c-12.7 0-24.9 1.8-36.7 5.4s-25.7 10.6-41.8 21L1 34.6C31.8 12 67.5.6 108.2.6c33.8 0 60.2 7.3 79.2 21.8s28.4 34.6 28.4 60.2z"></path>
                            </svg>